<?xml version="1.0" encoding="UTF-8" standalone="no"?>
<svg
   xmlns:dc="http://purl.org/dc/elements/1.1/"
   xmlns:cc="http://creativecommons.org/ns#"
   xmlns:rdf="http://www.w3.org/1999/02/22-rdf-syntax-ns#"
   xmlns:svg="http://www.w3.org/2000/svg"
   xmlns="http://www.w3.org/2000/svg"
   xmlns:sodipodi="http://sodipodi.sourceforge.net/DTD/sodipodi-0.dtd"
   xmlns:inkscape="http://www.inkscape.org/namespaces/inkscape"
   version="1.1"
   id="svg833"
   xml:space="preserve"
   width="210.93333"
   height="76.610924"
   viewBox="0 0 210.93333 76.610924"
   sodipodi:docname="tttrlib-logo.svg"
   inkscape:version="1.0.1 (3bc2e813f5, 2020-09-07)"><metadata
     id="metadata839"><rdf:RDF><cc:Work
         rdf:about=""><dc:format>image/svg+xml</dc:format><dc:type
           rdf:resource="http://purl.org/dc/dcmitype/StillImage" /><dc:title></dc:title></cc:Work></rdf:RDF></metadata><defs
     id="defs837"><clipPath
       clipPathUnits="userSpaceOnUse"
       id="clipPath849"><path
         d="M 0,1.2207e-4 H 960 V 540.00012 H 0 Z"
         clip-rule="evenodd"
         id="path847" /></clipPath><clipPath
       clipPathUnits="userSpaceOnUse"
       id="clipPath883"><path
         d="M 1.4305e-5,0 H 960.00001 V 540 H 1.4305e-5 Z"
         clip-rule="evenodd"
         id="path881" /></clipPath><clipPath
       clipPathUnits="userSpaceOnUse"
       id="clipPath895"><path
         d="M 1.4305e-5,0 H 960.00001 V 540 H 1.4305e-5 Z"
         clip-rule="evenodd"
         id="path893" /></clipPath><clipPath
       clipPathUnits="userSpaceOnUse"
       id="clipPath907"><path
         d="M 1.4305e-5,0 H 960.00001 V 540 H 1.4305e-5 Z"
         clip-rule="evenodd"
         id="path905" /></clipPath><clipPath
       clipPathUnits="userSpaceOnUse"
       id="clipPath919"><path
         d="M 1.4305e-5,0 H 960.00001 V 540 H 1.4305e-5 Z"
         clip-rule="evenodd"
         id="path917" /></clipPath><clipPath
       clipPathUnits="userSpaceOnUse"
       id="clipPath931"><path
         d="M 1.4305e-5,0 H 960.00001 V 540 H 1.4305e-5 Z"
         clip-rule="evenodd"
         id="path929" /></clipPath><clipPath
       clipPathUnits="userSpaceOnUse"
       id="clipPath943"><path
         d="M 1.4305e-5,0 H 960.00001 V 540 H 1.4305e-5 Z"
         clip-rule="evenodd"
         id="path941" /></clipPath></defs><sodipodi:namedview
     pagecolor="#ffffff"
     bordercolor="#666666"
     borderopacity="1"
     objecttolerance="10"
     gridtolerance="10"
     guidetolerance="10"
     inkscape:pageopacity="0"
     inkscape:pageshadow="2"
     inkscape:window-width="1920"
     inkscape:window-height="1027"
     id="namedview835"
     showgrid="false"
     fit-margin-top="0"
     fit-margin-left="0"
     fit-margin-right="0"
     fit-margin-bottom="0"
     inkscape:zoom="0.53359375"
     inkscape:cx="513.87089"
     inkscape:cy="76.002859"
     inkscape:window-x="-8"
     inkscape:window-y="-8"
     inkscape:window-maximized="1"
     inkscape:current-layer="g841" /><g
     id="g841"
     inkscape:groupmode="layer"
     inkscape:label="logo"
     transform="matrix(1.3333333,0,0,-1.3333333,-23.013333,595.88914)"><path
       d="m 78,412.44 c 0,4.18 3.438,7.56 7.68,7.56 4.242,0 7.68,-3.38 7.68,-7.56 0,-4.18 -3.438,-7.56 -7.68,-7.56 -4.242,0 -7.68,3.38 -7.68,7.56 z"
       style="fill:#ed7d31;fill-opacity:1;fill-rule:evenodd;stroke:none"
       id="path853" /><path
       d="m 78,412.44 c 0,4.18 3.438,7.56 7.68,7.56 4.242,0 7.68,-3.38 7.68,-7.56 0,-4.18 -3.438,-7.56 -7.68,-7.56 -4.242,0 -7.68,3.38 -7.68,7.56 z"
       style="fill:none;stroke:#ae5a21;stroke-width:1;stroke-linecap:butt;stroke-linejoin:miter;stroke-miterlimit:10;stroke-dasharray:none;stroke-opacity:1"
       id="path855" /><path
       d="m 118.32,412.44 c 0,4.18 3.38,7.56 7.56,7.56 4.18,0 7.56,-3.38 7.56,-7.56 0,-4.18 -3.38,-7.56 -7.56,-7.56 -4.18,0 -7.56,3.38 -7.56,7.56 z"
       style="fill:#70ad47;fill-opacity:1;fill-rule:evenodd;stroke:none"
       id="path857" /><path
       d="m 118.32,412.44 c 0,4.18 3.38,7.56 7.56,7.56 4.18,0 7.56,-3.38 7.56,-7.56 0,-4.18 -3.38,-7.56 -7.56,-7.56 -4.18,0 -7.56,3.38 -7.56,7.56 z"
       style="fill:none;stroke:#507e32;stroke-width:1;stroke-linecap:butt;stroke-linejoin:miter;stroke-miterlimit:10;stroke-dasharray:none;stroke-opacity:1"
       id="path859" /><path
       d="m 100.08,412.68 c 0,4.18 3.38,7.56 7.56,7.56 4.18,0 7.56,-3.38 7.56,-7.56 0,-4.18 -3.38,-7.56 -7.56,-7.56 -4.18,0 -7.56,3.38 -7.56,7.56 z"
       style="fill:#ed7d31;fill-opacity:1;fill-rule:evenodd;stroke:none"
       id="path861" /><path
       d="m 100.08,412.68 c 0,4.18 3.38,7.56 7.56,7.56 4.18,0 7.56,-3.38 7.56,-7.56 0,-4.18 -3.38,-7.56 -7.56,-7.56 -4.18,0 -7.56,3.38 -7.56,7.56 z"
       style="fill:none;stroke:#ae5a21;stroke-width:1;stroke-linecap:butt;stroke-linejoin:miter;stroke-miterlimit:10;stroke-dasharray:none;stroke-opacity:1"
       id="path863" /><path
       d="m 159.6,412.44 c 0,4.18 3.44,7.56 7.68,7.56 4.24,0 7.68,-3.38 7.68,-7.56 0,-4.18 -3.44,-7.56 -7.68,-7.56 -4.24,0 -7.68,3.38 -7.68,7.56 z"
       style="fill:#5b9bd5;fill-opacity:1;fill-rule:evenodd;stroke:none"
       id="path865" /><path
       d="m 159.6,412.44 c 0,4.18 3.44,7.56 7.68,7.56 4.24,0 7.68,-3.38 7.68,-7.56 0,-4.18 -3.44,-7.56 -7.68,-7.56 -4.24,0 -7.68,3.38 -7.68,7.56 z"
       style="fill:none;stroke:#41719c;stroke-width:1;stroke-linecap:butt;stroke-linejoin:miter;stroke-miterlimit:10;stroke-dasharray:none;stroke-opacity:1"
       id="path867" /><path
       d="m 57.36,412.68 c 0,4.18 3.385,7.56 7.56,7.56 4.175,0 7.56,-3.38 7.56,-7.56 0,-4.18 -3.385,-7.56 -7.56,-7.56 -4.175,0 -7.56,3.38 -7.56,7.56 z"
       style="fill:#5b9bd5;fill-opacity:1;fill-rule:evenodd;stroke:none"
       id="path869" /><path
       d="m 57.36,412.68 c 0,4.18 3.385,7.56 7.56,7.56 4.175,0 7.56,-3.38 7.56,-7.56 0,-4.18 -3.385,-7.56 -7.56,-7.56 -4.175,0 -7.56,3.38 -7.56,7.56 z"
       style="fill:none;stroke:#41719c;stroke-width:1;stroke-linecap:butt;stroke-linejoin:miter;stroke-miterlimit:10;stroke-dasharray:none;stroke-opacity:1"
       id="path871" /><path
       d="m 17.76,412.68 c 0,4.18 3.385,7.56 7.56,7.56 4.175,0 7.56,-3.38 7.56,-7.56 0,-4.18 -3.385,-7.56 -7.56,-7.56 -4.175,0 -7.56,3.38 -7.56,7.56 z"
       style="fill:#70ad47;fill-opacity:1;fill-rule:evenodd;stroke:none"
       id="path873" /><path
       d="m 17.76,412.68 c 0,4.18 3.385,7.56 7.56,7.56 4.175,0 7.56,-3.38 7.56,-7.56 0,-4.18 -3.385,-7.56 -7.56,-7.56 -4.175,0 -7.56,3.38 -7.56,7.56 z"
       style="fill:none;stroke:#507e32;stroke-width:1;stroke-linecap:butt;stroke-linejoin:miter;stroke-miterlimit:10;stroke-dasharray:none;stroke-opacity:1"
       id="path875" /><g
       id="g877"
       transform="translate(0,-6)"><g
         id="g879"
         clip-path="url(#clipPath883)"><text
           transform="matrix(1,0,0,-1,79.776,429.72)"
           style="font-style:italic;font-variant:normal;font-weight:bold;font-size:24.024px;font-family:Arial;-inkscape-font-specification:Arial-BoldItalicMT;writing-mode:lr-tb;fill:#000000;fill-opacity:1;fill-rule:nonzero;stroke:none"
           id="text887"><tspan
             x="0 14.678664 29.285255 43.963921 61.213154 67.891823 74.618546"
             y="0"
             sodipodi:role="line"
             id="tspan885">TTTRlib</tspan></text></g></g><g
       id="g889"><g
         id="g891"
         clip-path="url(#clipPath895)"><text
           transform="matrix(1,0,0,-1,20.76,391.58)"
           style="font-variant:normal;font-weight:bold;font-size:10.08px;font-family:Arial;-inkscape-font-specification:Arial-BoldMT;writing-mode:lr-tb;fill:#000000;fill-opacity:1;fill-rule:nonzero;stroke:none"
           id="text899"><tspan
             x="0 6.4713602 9.3441601 18.22464"
             y="0"
             sodipodi:role="line"
             id="tspan897">Time</tspan></text></g></g><g
       id="g901"><g
         id="g903"
         clip-path="url(#clipPath907)"><text
           transform="matrix(1,0,0,-1,44.52,391.58)"
           style="font-variant:normal;font-weight:bold;font-size:10.08px;font-family:Arial;-inkscape-font-specification:Arial-BoldMT;writing-mode:lr-tb;fill:#000000;fill-opacity:1;fill-rule:nonzero;stroke:none"
           id="text911"><tspan
             x="0"
             y="0"
             id="tspan909">-</tspan></text></g></g><g
       id="g913"><g
         id="g915"
         clip-path="url(#clipPath919)"><text
           transform="matrix(1,0,0,-1,47.88,391.58)"
           style="font-variant:normal;font-weight:bold;font-size:10.08px;font-family:Arial;-inkscape-font-specification:Arial-BoldMT;writing-mode:lr-tb;fill:#000000;fill-opacity:1;fill-rule:nonzero;stroke:none"
           id="text923"><tspan
             x="0 3.3566401 8.8804798 15.10992 21.339359 26.863199 32.860802 35.017921 38.374561 41.24736 50.127838"
             y="0"
             sodipodi:role="line"
             id="tspan921">tagged time</tspan></text></g></g><g
       id="g925"><g
         id="g927"
         clip-path="url(#clipPath931)"><text
           transform="matrix(1,0,0,-1,103.56,391.58)"
           style="font-variant:normal;font-weight:bold;font-size:10.08px;font-family:Arial;-inkscape-font-specification:Arial-BoldMT;writing-mode:lr-tb;fill:#000000;fill-opacity:1;fill-rule:nonzero;stroke:none"
           id="text935"><tspan
             x="0"
             y="0"
             id="tspan933">-</tspan></text></g></g><g
       id="g937"><g
         id="g939"
         clip-path="url(#clipPath943)"><text
           transform="matrix(1,0,0,-1,106.92,391.58)"
           style="font-variant:normal;font-weight:bold;font-size:10.08px;font-family:Arial;-inkscape-font-specification:Arial-BoldMT;writing-mode:lr-tb;fill:#000000;fill-opacity:1;fill-rule:nonzero;stroke:none"
           id="text947"><tspan
             x="0 3.8404801 9.3643198 14.88816 21.13776 24.010559 29.534401 35.058239"
             y="0"
             sodipodi:role="line"
             id="tspan945">resolved</tspan></text></g></g></g></svg>
